<svg width="34" height="35" viewBox="0 0 34 35" fill="none" xmlns="http://www.w3.org/2000/svg">
<g id="PhoneCall 1">
<g id="Group">
<path id="Vector" d="M21.1724 5.88135C22.9737 6.36579 24.616 7.31502 25.9349 8.63394C27.2538 9.95286 28.203 11.5952 28.6875 13.3964" stroke="#1A1A1A" stroke-width="1.5" stroke-linecap="round" stroke-linejoin="round"/>
<path id="Vector_2" d="M20.0728 9.98788C21.1533 10.2786 22.1384 10.848 22.9296 11.6392C23.7208 12.4304 24.2903 13.4156 24.5809 14.4961" stroke="#1A1A1A" stroke-width="1.5" stroke-linecap="round" stroke-linejoin="round"/>
<path id="Vector_3" d="M12.2825 17.146C13.3843 19.3993 15.2105 21.2176 17.4686 22.3097C17.6339 22.388 17.8168 22.4219 17.9992 22.4079C18.1817 22.3939 18.3573 22.3326 18.5088 22.23L21.8344 20.0136C21.9813 19.9156 22.1503 19.8557 22.3262 19.8393C22.502 19.823 22.6792 19.8508 22.8416 19.9201L29.0626 22.587C29.2739 22.6768 29.4503 22.8328 29.5653 23.0315C29.6802 23.2302 29.7275 23.4609 29.7001 23.6888C29.5031 25.2273 28.7523 26.6413 27.5881 27.6661C26.4238 28.6909 24.926 29.2562 23.375 29.2563C18.5845 29.2563 13.9903 27.3533 10.6029 23.966C7.21551 20.5786 5.3125 15.9843 5.3125 11.1938C5.31264 9.64294 5.87805 8.14526 6.90286 6.9812C7.92767 5.81714 9.34162 5.06651 10.88 4.86983C11.1079 4.84235 11.3386 4.88965 11.5373 5.00463C11.7361 5.11961 11.892 5.29603 11.9818 5.50733L14.6508 11.7336C14.7195 11.8945 14.7473 12.0698 14.7319 12.244C14.7166 12.4182 14.6584 12.586 14.5626 12.7323L12.3526 16.109C12.2523 16.261 12.1931 16.4365 12.1809 16.6182C12.1686 16.8 12.2036 16.9818 12.2825 17.146V17.146Z" stroke="#1A1A1A" stroke-width="1.5" stroke-linecap="round" stroke-linejoin="round"/>
</g>
</g>
</svg>
